<svg width="81" height="25" viewBox="0 0 81 25" fill="none" xmlns="http://www.w3.org/2000/svg">
<g id="Frame 2246">
<g id="Group">
<path id="Vector" d="M70.6754 13.781V13.8134C70.649 14.3517 70.3725 14.8017 70.0813 15.1841C68.9341 16.6931 67.178 18.6698 67.1486 18.7022C66.2632 19.7935 65.1277 19.4199 63.9923 18.8463L63.9894 18.8434C63.8835 18.7904 63.8541 18.6522 63.9305 18.561C64.5571 17.8109 66.9632 14.9312 67.0927 14.7547C67.2486 14.537 67.6369 14.0517 67.6369 13.8104V13.7693C67.6369 13.5428 67.2515 13.0545 67.0927 12.8368C66.9662 12.6603 64.56 9.78645 63.9305 9.03342C63.8541 8.94223 63.8835 8.80398 63.9894 8.75103C65.1248 8.17743 66.2632 7.80092 67.1456 8.89516C67.175 8.92752 68.9311 10.9042 70.0783 12.4103C70.3754 12.7927 70.6519 13.2427 70.6754 13.781ZM14.8777 13.7722V13.8134C14.8777 14.0517 15.266 14.5399 15.4219 14.7576C15.5484 14.937 17.9575 17.8168 18.584 18.5639C18.6605 18.6551 18.6311 18.7934 18.5252 18.8463H18.5223C17.3868 19.4199 16.2455 19.7935 15.3689 18.7022C15.3395 18.6728 13.5805 16.6931 12.4333 15.1841C12.1421 14.8017 11.8626 14.3517 11.8391 13.8134V13.781C11.8626 13.2457 12.1391 12.7927 12.4333 12.4103C13.5834 10.9013 15.3425 8.92752 15.3689 8.89516C16.2455 7.80092 17.3868 8.17743 18.5223 8.75103C18.6281 8.80398 18.6576 8.94223 18.5811 9.03636C17.9516 9.78644 15.5454 12.6633 15.4189 12.8397C15.263 13.0574 14.8777 13.5457 14.8777 13.7722ZM60.8566 12.828L60.8743 16.3254C60.8743 23.7057 57.0033 24.6294 53.3616 24.9559L53.3234 24.9588C53.1146 24.9765 52.9086 24.9882 52.6969 24.9912C52.4851 24.9882 52.2733 24.9765 52.0615 24.9588L52.0291 24.9559C48.3875 24.6294 44.5194 23.7057 44.5194 16.3254L44.5371 12.828V5.57418C44.5371 5.47123 44.6194 5.38887 44.7224 5.38887H47.055C49.1553 5.4124 50.173 6.17425 50.173 8.38628L50.1495 17.0079C50.1495 17.7227 50.5878 19.7406 52.3821 20.0171C52.4586 20.0318 52.5351 20.0376 52.6174 20.0435C52.6204 20.0435 52.6263 20.0435 52.6321 20.0435H52.7733C52.7763 20.0435 52.7822 20.0435 52.788 20.0435C52.8645 20.0376 52.944 20.0318 53.0175 20.0171C54.8118 19.7406 55.2501 17.7256 55.2501 17.0079L55.2266 8.38628C55.2266 6.17425 56.2443 5.40946 58.3416 5.38887H60.6772C60.7802 5.38887 60.8625 5.47123 60.8625 5.57418V12.828H60.8566ZM35.6684 16.852C34.9301 18.9081 33.8035 19.7494 32.4268 19.7994C31.3767 19.8347 30.5501 19.4846 29.9089 18.7728C29.2794 18.0845 28.8029 17.0402 28.5646 15.5548C28.344 14.1575 28.3058 12.6838 28.4293 11.1543C28.5499 9.60407 28.8235 8.36569 29.2059 7.44794C29.55 6.63608 29.9648 6.08895 30.3884 5.75068C30.809 5.40946 31.3532 5.21238 32.0444 5.18885C33.1887 5.15061 34.0447 5.47123 34.6889 6.10954C35.3095 6.73903 35.7743 7.71561 36.0125 9.18049C36.5097 12.3456 36.3596 14.9165 35.6684 16.852ZM39.3865 2.5856C37.5215 0.867747 35.036 0 31.968 0C30.2677 0 28.7176 0.33239 27.3674 1.00012C26.0202 1.65019 24.9348 2.6003 24.1317 3.81515C23.1169 5.34769 22.4168 7.03318 22.0168 8.8481C21.6197 10.6483 21.5344 12.5632 21.7844 14.5488C22.1844 17.8815 23.3522 20.4789 25.2172 22.2967C27.0997 24.1117 29.5147 25 32.5827 25C34.4359 25 36.0861 24.597 37.4715 23.8293C38.8717 23.0468 40.0513 21.8614 41.0014 20.3142C41.8191 18.9463 42.4015 17.3815 42.7016 15.6489C43.0016 13.8987 43.0193 11.9985 42.7839 10.0012C42.3839 6.8008 41.2514 4.3005 39.3865 2.5856Z" fill="#1E1E1E"/>
</g>
</g>
</svg>
