<svg width="81" height="25" viewBox="0 0 81 25" fill="none" xmlns="http://www.w3.org/2000/svg">
<g id="Frame 2245">
<g id="Camada 1">
<g id="Group">
<path id="Vector" d="M9.69304 14.9792C9.69304 15.9054 8.93366 16.6648 8.00745 16.6648H4.23356C4.66503 16.1528 4.92391 15.497 4.92391 14.7779C4.92391 14.0588 4.66503 13.4029 4.23356 12.8909H8.00745C8.93366 12.8909 9.69304 13.6503 9.69304 14.5765V14.9735V14.9792ZM2.08774 10.5265V10.1296C2.08774 9.20335 2.84712 8.44397 3.77333 8.44397H7.55297C7.12151 8.95598 6.86263 9.6118 6.86263 10.3309C6.86263 11.05 7.12151 11.7059 7.55297 12.2179H3.77333C2.84712 12.2179 2.08774 11.4585 2.08774 10.5323M9.5147 7H2.26608C1.20755 7 0.338867 7.86868 0.338867 8.92721V16.1758C0.338867 17.2401 1.20755 18.103 2.26608 18.103H9.5147C10.579 18.103 11.4419 17.2344 11.4419 16.1758V8.92721C11.4419 7.86293 10.5732 7 9.5147 7Z" fill="#1E1E1E"/>
<path id="Vector_2" d="M45.6661 9.17456H47.6854C48.6749 9.17456 49.4803 9.96845 49.5033 10.9579C49.486 11.9474 48.6806 12.7413 47.6854 12.7413H45.6661V9.17456ZM48.2549 7.01723H43.854C43.6641 7.01723 43.5088 7.17256 43.5088 7.3624V18.1433H45.3209C45.5108 18.1433 45.6661 17.988 45.6661 17.7981V14.8872H46.7822C47.1964 14.8872 47.5761 15.1115 47.7717 15.474L48.8935 17.545C49.0948 17.9132 49.4745 18.1375 49.8945 18.1375H51.6664L49.7276 14.5535C50.8667 14.007 51.6606 12.8449 51.6664 11.4987V10.4172C51.6664 8.53599 50.1419 7.01147 48.2549 7.01147" fill="#1E1E1E"/>
<path id="Vector_3" d="M67.5908 7.01733H63.1899C63.0001 7.01733 62.8447 7.17266 62.8447 7.36251V18.1434H64.6569C64.8467 18.1434 65.0021 17.9881 65.0021 17.7982V9.17466H67.0213C68.0281 9.17466 68.8392 9.98582 68.8392 10.9926V18.1376H69.869C70.4903 18.1376 70.9908 17.6314 70.9908 17.0158V10.4288C70.9908 8.5476 69.4663 7.02309 67.5793 7.02309" fill="#1E1E1E"/>
<path id="Vector_4" d="M55.3302 12.7357V9.17466H57.3494C58.3562 9.17466 59.1674 9.98582 59.1674 10.9926V12.7357H55.3302ZM57.919 7.01733H53.518C53.3282 7.01733 53.1729 7.17266 53.1729 7.36251V18.1434H54.985C55.1749 18.1434 55.3302 17.9881 55.3302 17.7982V14.8873H59.1674V18.1319H60.1971C60.8184 18.1319 61.3189 17.6256 61.3189 17.0101V10.4288C61.3189 8.5476 59.7944 7.02309 57.9075 7.02309" fill="#1E1E1E"/>
<path id="Vector_5" d="M38.0202 12.7356H36.001V9.17456H38.0202C39.0097 9.17456 39.8151 9.96845 39.8381 10.9579C39.8209 11.9474 39.0155 12.7413 38.0202 12.7413M38.584 7.01723H34.1831C33.9932 7.01723 33.8379 7.17256 33.8379 7.3624V18.1433H35.65C35.8399 18.1433 35.9952 17.988 35.9952 17.7981V14.8872H38.584C40.4595 14.8872 41.9782 13.3742 41.9897 11.4987V10.4172C41.9897 8.53599 40.4652 7.01147 38.5783 7.01147" fill="#1E1E1E"/>
<path id="Vector_6" d="M30.1672 14.1739C30.1672 15.1749 29.3561 15.9918 28.3493 15.9918H28.148C27.147 15.9918 26.3301 15.1749 26.3301 14.1739V9.17466H28.3493C29.3561 9.17466 30.1672 9.98582 30.1672 10.9926V14.1739ZM28.9131 7.01733H24.5122C24.3223 7.01733 24.167 7.17266 24.167 7.36251V14.7377C24.167 16.6189 25.6915 18.1434 27.5784 18.1434H28.9131C30.7943 18.1434 32.3246 16.6189 32.3246 14.7377V10.4288C32.3246 8.54185 30.8001 7.01733 28.9131 7.01733Z" fill="#1E1E1E"/>
<path id="Vector_7" d="M78.5091 14.1739C78.5091 15.1749 77.698 15.9918 76.6912 15.9918H76.4899C75.4889 15.9918 74.672 15.1749 74.672 14.1739V9.17466H76.6912C77.698 9.17466 78.5091 9.98582 78.5091 10.9926V14.1739ZM77.255 7.01733H72.9634C72.716 7.01733 72.5146 7.21868 72.5146 7.46606V14.7377C72.5146 16.6189 74.0392 18.1434 75.9204 18.1434H77.255C79.1362 18.1434 80.6607 16.6189 80.6607 14.7377V10.4288C80.6607 8.5476 79.1362 7.02309 77.255 7.02309" fill="#1E1E1E"/>
<path id="Vector_8" d="M22.3197 13.4892C21.9918 12.8852 21.3417 12.2409 20.1106 11.8382C20.1739 11.8382 18.6896 11.4067 17.3262 10.9925C16.8199 10.8372 16.6301 10.4402 16.6531 10.0548C16.6934 9.41621 17.2054 9.16308 17.936 9.16308H20.6226C21.2439 9.16308 21.7444 8.65683 21.7444 8.04127V7.33942C21.7444 7.15533 21.5948 7 21.405 7H17.5678C15.8592 7 14.4785 8.38644 14.4785 10.0893C14.4785 10.0893 14.4785 10.2849 14.4785 10.2906C14.5533 11.6541 15.1976 12.6033 16.981 13.1498C18.4135 13.587 18.9197 13.6906 19.7136 14.0415C20.1048 14.2141 20.3004 14.3637 20.404 14.5995C20.5248 14.8584 20.4673 15.2784 20.3407 15.5028C20.2544 15.6523 20.007 15.9285 19.6273 15.9802C19.5813 15.9802 15.8247 15.9917 15.8247 15.9917C15.2034 15.9917 14.7029 16.498 14.7029 17.1136V18.1433H19.5468C21.2554 18.1433 22.6361 16.7626 22.6361 15.054C22.6361 15.054 22.6879 14.1738 22.3082 13.4777" fill="#1E1E1E"/>
</g>
</g>
</g>
</svg>
