<svg width="81" height="25" viewBox="0 0 81 25" fill="none" xmlns="http://www.w3.org/2000/svg">
<path d="M46.7435 19.6619L45.8956 22.8732H45.8729L45.0088 19.6619H44.2532L44.2524 23.7073H44.7266L44.7271 20.359H44.7445L45.6355 23.7073H46.0984L47.0021 20.359H47.0192L47.0183 23.7073H47.5326L47.5336 19.6619H46.7435Z" fill="#1E1E1E"/>
<path d="M54.0831 19.6619L53.3107 23.1132H53.2993L52.5286 19.6619H51.9626L52.9561 23.7073H53.6192L54.6316 19.6619H54.0831Z" fill="#1E1E1E"/>
<path d="M55.4498 19.6619L55.4487 23.7073H57.2092V23.2446H55.9464V21.822H57.0723L57.0726 21.3932H55.9467V20.1194H57.1528V19.6619H55.4498Z" fill="#1E1E1E"/>
<path d="M58.2272 19.6619L58.2266 23.7073H58.7409L58.7419 19.6619H58.2272Z" fill="#1E1E1E"/>
<path d="M61.8015 22.5361C61.8015 22.7191 61.773 22.8838 61.716 23.0303C61.6648 23.1677 61.586 23.2931 61.4844 23.3989C61.3866 23.4986 61.2688 23.5765 61.1387 23.6273C61.0022 23.6813 60.8567 23.7085 60.7099 23.7075C60.5075 23.7083 60.3075 23.6643 60.1241 23.5788C59.9395 23.4934 59.792 23.3804 59.6816 23.2396L59.9843 22.8682C60.0714 22.9823 60.1841 23.0743 60.3132 23.1369C60.4361 23.1997 60.572 23.2329 60.7101 23.234C60.8817 23.234 61.0228 23.1769 61.1334 23.0626C61.244 22.9483 61.2993 22.7825 61.2992 22.5654C61.3011 22.4724 61.2836 22.38 61.2478 22.2941C61.2134 22.2152 61.1652 22.143 61.1054 22.0811C61.0424 22.0166 60.9725 21.9592 60.897 21.91C60.8151 21.8564 60.7301 21.8077 60.6425 21.7639C60.5342 21.712 60.4301 21.6519 60.3309 21.5842C60.2349 21.5184 60.1476 21.4407 60.0712 21.353C59.9925 21.2612 59.9315 21.1556 59.8912 21.0416C59.8474 20.9213 59.8255 20.7794 59.8256 20.6158C59.8256 20.4216 59.856 20.2521 59.9169 20.1072C59.9717 19.9714 60.0546 19.8488 60.1601 19.7473C60.2592 19.6532 60.3771 19.5811 60.506 19.5357C60.6325 19.4907 60.7658 19.4675 60.9002 19.4673C61.0945 19.4673 61.2687 19.4996 61.4229 19.5643C61.5744 19.6269 61.7073 19.7272 61.8089 19.8558L61.5 20.2214C61.3553 20.031 61.1611 19.9357 60.9173 19.9355C60.8442 19.9357 60.7717 19.9484 60.7029 19.973C60.631 19.9987 60.5656 20.0396 60.5111 20.093C60.4515 20.1522 60.4049 20.2232 60.3741 20.3013C60.3396 20.3852 60.3228 20.4862 60.3228 20.604C60.3206 20.6948 60.3369 20.7852 60.3709 20.8694C60.4029 20.9432 60.4474 21.0108 60.5024 21.0694C60.5598 21.1301 60.6241 21.1838 60.6942 21.2293C60.7695 21.2787 60.8477 21.3235 60.9285 21.3633C61.0363 21.4177 61.1411 21.4778 61.2425 21.5434C61.3455 21.6103 61.4397 21.69 61.5227 21.7806C61.6088 21.8756 61.6775 21.9849 61.7258 22.1036C61.7772 22.2272 61.803 22.3712 61.8025 22.5349" fill="#1E1E1E"/>
<path d="M29.4837 9.69865C29.0019 9.69865 28.5519 9.77463 28.1338 9.92659C27.7259 10.0723 27.3543 10.3045 27.0445 10.6073C26.7361 10.9093 26.4932 11.2839 26.3156 11.7311C26.138 12.1783 26.0492 12.6996 26.0492 13.2948C26.0492 13.8857 26.1315 14.3983 26.296 14.8329C26.4605 15.2674 26.6946 15.6271 26.9983 15.9119C27.3017 16.1969 27.6669 16.4078 28.094 16.5445C28.5212 16.6812 28.9969 16.7496 29.5213 16.7496C29.6645 16.7496 29.8163 16.7422 29.9766 16.7273C30.1369 16.7125 30.2983 16.6913 30.4608 16.6636C30.623 16.635 30.7819 16.6032 30.9359 16.5671C31.0755 16.5345 31.2133 16.4948 31.3488 16.4481V17.3728C31.0959 17.4711 30.8026 17.547 30.4689 17.6006C30.1289 17.6546 29.7852 17.6814 29.4409 17.6807C28.7259 17.6807 28.092 17.5812 27.5393 17.3823C26.9866 17.1833 26.5231 16.8976 26.1486 16.5252C25.7739 16.1528 25.4902 15.6978 25.2975 15.1604C25.1048 14.6229 25.0084 14.014 25.0085 13.3336C25.0085 12.6652 25.1103 12.0509 25.3137 11.4906C25.5171 10.9304 25.8104 10.4487 26.1936 10.0457C26.5771 9.64272 27.0417 9.32912 27.5875 9.10492C28.1334 8.88071 28.7468 8.76827 29.4278 8.76758C29.608 8.76758 29.7853 8.7751 29.9612 8.78999C30.1372 8.80488 30.3047 8.82655 30.4654 8.85398C30.6158 8.87947 30.7648 8.91284 30.9118 8.95394C31.0324 8.98646 31.1507 9.02715 31.2658 9.07572V10.0008C30.9865 9.91012 30.7016 9.83801 30.4129 9.7849C30.1065 9.72728 29.7954 9.69826 29.4837 9.69821" fill="#1E1E1E"/>
<path d="M36.1601 10.2633C35.7767 11.3331 35.4105 12.3051 35.0616 13.1792L34.7402 13.9882H37.5889L37.2631 13.1797C36.9107 12.29 36.5518 11.3179 36.1864 10.2633H36.1601ZM32.2158 17.5202L35.7169 8.92798H36.6221L40.123 17.5202H38.9862L37.9595 14.9324H34.3667L33.34 17.5202H32.2158Z" fill="#1E1E1E"/>
<path d="M42.4866 9.87158V13.0188H43.521C43.8422 13.0188 44.1162 13.008 44.3431 12.9865C44.55 12.969 44.7545 12.9302 44.9535 12.8709C45.3178 12.7597 45.5983 12.582 45.795 12.3381C45.9916 12.0941 46.0899 11.775 46.0899 11.3806C46.0853 11.013 45.9911 10.7166 45.8072 10.4914C45.6233 10.2662 45.3686 10.1046 45.0429 10.0066C44.8886 9.95975 44.7044 9.92584 44.4903 9.90343C44.2761 9.88102 44.0036 9.87129 43.6745 9.87129L42.4866 9.87158ZM42.4866 13.962V17.5202H41.4395V8.92798H43.6665C44.0427 8.92798 44.3623 8.94189 44.6252 8.9697C44.8692 8.9942 45.1109 9.03803 45.3479 9.10078C45.9468 9.26384 46.4045 9.54113 46.7211 9.93262C47.0376 10.3241 47.1959 10.8134 47.1961 11.4004C47.1961 11.7471 47.1405 12.0574 47.0293 12.3312C46.9226 12.5982 46.7629 12.8408 46.56 13.0446C46.3586 13.2457 46.1177 13.4105 45.8373 13.5391C45.5392 13.6729 45.2251 13.7677 44.9028 13.8212V13.8473L47.4467 17.5202H46.3995L43.7528 13.962H42.4866Z" fill="#1E1E1E"/>
<path d="M50.2728 9.87158V13.0188H51.3071C51.6283 13.0188 51.9023 13.008 52.1291 12.9865C52.336 12.9689 52.5405 12.9302 52.7395 12.8709C53.1033 12.7595 53.3839 12.5818 53.5811 12.3381C53.7783 12.0943 53.8767 11.7752 53.8761 11.3806C53.8718 11.013 53.7777 10.7166 53.5936 10.4914C53.4096 10.2662 53.1547 10.1046 52.8289 10.0066C52.6746 9.95975 52.4907 9.92584 52.2764 9.90343C52.0621 9.88102 51.7897 9.87129 51.4608 9.87129L50.2728 9.87158ZM50.2728 13.962V17.5202H49.2256V8.92798H51.4527C51.8291 8.92798 52.1486 8.94189 52.4114 8.9697C52.6551 8.9942 52.8965 9.03803 53.1333 9.10078C53.7322 9.26384 54.19 9.54113 54.5066 9.93262C54.8232 10.3241 54.9816 10.8134 54.9818 11.4004C54.9818 11.7471 54.9261 12.0574 54.8146 12.3312C54.7079 12.5982 54.5483 12.8408 54.3454 13.0446C54.1442 13.2457 53.9033 13.4105 53.6227 13.5391C53.3246 13.6729 53.0104 13.7677 52.688 13.8212V13.8473L55.2319 17.5202H54.1848L51.5381 13.962H50.2728Z" fill="#1E1E1E"/>
<path d="M60.089 10.2633C59.7056 11.3331 59.3394 12.3051 58.9905 13.1792L58.6692 13.9882H61.5181L61.1921 13.1797C60.8396 12.29 60.4807 11.3179 60.1154 10.2633H60.089ZM56.145 17.5202L59.6458 8.92798H60.5517L64.0525 17.5202H62.9155L61.889 14.9324H58.2954L57.2692 17.5202H56.145Z" fill="#1E1E1E"/>
<path d="M66.4168 9.87158V13.0188H67.451C67.7722 13.0188 68.0464 13.008 68.2734 12.9865C68.4802 12.9689 68.6846 12.9302 68.8834 12.8709C69.2472 12.7595 69.5278 12.5818 69.7251 12.3381C69.9225 12.0943 70.0208 11.7752 70.0201 11.3806C70.016 11.013 69.9219 10.7166 69.7378 10.4914C69.5538 10.2662 69.2989 10.1046 68.9732 10.0066C68.8193 9.95975 68.635 9.92584 68.4209 9.90343C68.2067 9.88102 67.9342 9.87129 67.6051 9.87129L66.4168 9.87158ZM66.4168 13.962V17.5202H65.3696V8.92798H67.5967C67.9733 8.92798 68.2929 8.94189 68.5554 8.9697C68.7994 8.99416 69.0411 9.03799 69.2781 9.10078C69.8765 9.26384 70.334 9.54098 70.6506 9.93218C70.9672 10.3234 71.1256 10.8126 71.1257 11.3999C71.1257 11.7467 71.0699 12.057 70.9583 12.3307C70.8518 12.5977 70.6924 12.8404 70.4896 13.0442C70.2881 13.2453 70.0472 13.4101 69.7669 13.5387C69.4687 13.6724 69.1546 13.7672 68.8322 13.8207V13.8468L71.3761 17.5198H70.329L67.6821 13.9615L66.4168 13.962Z" fill="#1E1E1E"/>
<path d="M79.7976 13.2308C79.7976 12.6527 79.7219 12.1432 79.5704 11.7025C79.4188 11.2617 79.2099 10.8934 78.9437 10.5976C78.6837 10.3068 78.362 10.0775 78.0023 9.92659C77.6404 9.77443 77.252 9.69836 76.8371 9.69836C76.4222 9.69836 76.0335 9.77443 75.671 9.92659C75.3113 10.0775 74.9897 10.3067 74.7298 10.5976C74.4631 10.8931 74.2542 11.2614 74.1029 11.7025C73.9517 12.1435 73.8759 12.653 73.8756 13.2308C73.8756 13.8084 73.9525 14.3168 74.1063 14.7559C74.2601 15.1951 74.47 15.5621 74.7361 15.857C74.9956 16.1478 75.3176 16.3762 75.6778 16.5252C76.0392 16.675 76.4299 16.7498 76.8499 16.7496C77.2655 16.7496 77.652 16.6748 78.0093 16.5252C78.367 16.375 78.6865 16.1467 78.9444 15.857C79.2108 15.5613 79.4197 15.1943 79.5711 14.7559C79.7225 14.3176 79.7983 13.8092 79.7984 13.2308M80.8392 13.2308C80.8392 13.8814 80.7458 14.4787 80.559 15.0227C80.3722 15.5666 80.1044 16.0354 79.7556 16.4289C79.4072 16.8227 78.978 17.1368 78.4972 17.3498C78.0064 17.5707 77.4572 17.681 76.8496 17.6807C76.2208 17.6807 75.6581 17.5704 75.1613 17.3498C74.6646 17.1292 74.2439 16.8223 73.8994 16.4289C73.5553 16.0346 73.2918 15.5658 73.109 15.0227C72.9262 14.4795 72.8349 13.8822 72.835 13.2308C72.835 12.5756 72.9295 11.9751 73.1184 11.4294C73.3074 10.8837 73.5751 10.4138 73.9214 10.0198C74.269 9.62489 74.6985 9.31044 75.18 9.09828C75.6727 8.87781 76.2248 8.76758 76.8364 8.76758C77.4608 8.76758 78.0205 8.87781 78.5154 9.09828C79.0102 9.31875 79.4298 9.62592 79.774 10.0198C80.1182 10.4136 80.3816 10.8835 80.5643 11.4294C80.747 11.9753 80.8386 12.5758 80.8392 13.2308Z" fill="#1E1E1E"/>
<path d="M14.6624 15.0188C14.0189 15.9962 12.9268 16.6393 11.6877 16.6393C9.70869 16.6393 8.10444 14.9995 8.10444 12.9763C8.10444 10.9532 9.70869 9.31294 11.6877 9.31294C12.9486 9.31294 14.0565 9.97936 14.695 10.9856L21.6008 9.0045C20.0412 4.90542 16.1447 2 11.5837 2C5.64978 2 0.839111 6.91781 0.839111 12.9842C0.839111 19.0505 5.64978 23.9683 11.5837 23.9683C16.1706 23.9683 20.0852 21.0299 21.6267 16.8941L14.6624 15.0188Z" fill="#1E1E1E"/>
<path d="M50.146 19.342H49.7625L50.277 18.5193H50.757L50.146 19.342ZM50.8144 21.6789C50.8155 21.4624 50.7973 21.2463 50.7601 21.0331C50.7241 20.8314 50.6709 20.6562 50.6006 20.5075C50.5302 20.3588 50.4426 20.2417 50.3376 20.1563C50.2358 20.0715 50.1071 20.0258 49.9746 20.0274C49.8394 20.0254 49.7078 20.071 49.6029 20.1563C49.4963 20.2419 49.4078 20.359 49.3375 20.5075C49.2672 20.656 49.2147 20.8312 49.1801 21.0331C49.1114 21.4609 49.1114 21.8969 49.1801 22.3247C49.2143 22.5263 49.2666 22.7015 49.337 22.8503C49.4074 22.9991 49.4959 23.1162 49.6025 23.2016C49.7074 23.2867 49.8389 23.3321 49.974 23.3301C50.1064 23.3316 50.235 23.2861 50.3368 23.2016C50.4415 23.1158 50.5291 22.9987 50.5997 22.8503C50.6703 22.7019 50.7237 22.5267 50.76 22.3247C50.797 22.1114 50.8152 21.8953 50.8143 21.6789M51.3573 21.6789C51.3573 21.995 51.3258 22.2835 51.2626 22.5444C51.1995 22.8052 51.1081 23.0292 50.9883 23.2162C50.868 23.403 50.7233 23.5477 50.5539 23.6504C50.3846 23.7532 50.1913 23.8045 49.9739 23.8045C49.7568 23.8045 49.5625 23.7532 49.391 23.6504C49.2195 23.5477 49.0738 23.403 48.9538 23.2162C48.8339 23.0295 48.7424 22.8056 48.6795 22.5446C48.6166 22.2837 48.5853 21.9952 48.5857 21.6792C48.5857 21.3631 48.6161 21.0745 48.677 20.8134C48.7379 20.5524 48.8274 20.3295 48.9457 20.1448C49.0637 19.9602 49.2095 19.8174 49.3832 19.7165C49.5568 19.6155 49.7541 19.5651 49.9749 19.5651C50.1919 19.5651 50.3852 19.6155 50.5548 19.7165C50.7244 19.8174 50.8691 19.9602 50.9889 20.1448C51.1088 20.33 51.2002 20.5529 51.2634 20.8134C51.3265 21.074 51.3579 21.3626 51.3575 21.6792" fill="#1E1E1E"/>
</svg>
