<svg width="80" height="25" viewBox="0 0 80 25" fill="none" xmlns="http://www.w3.org/2000/svg">
<g id="Frame 2244">
<g id="Group">
<g id="Group_2">
<path id="Subtract" fill-rule="evenodd" clip-rule="evenodd" d="M33 12.5C33 5.59797 27.4019 0 20.4999 0C13.5979 0 8 5.59797 8 12.5C8 19.402 13.5979 25 20.4999 25C27.4019 25 33 19.402 33 12.5ZM23.2924 11.8383V11.7047C23.2861 10.8332 23.1842 9.98721 22.7326 9.18569C22.2809 8.36508 21.6067 7.62713 20.7352 7.23909C20.1054 6.95283 19.3166 6.82559 18.6232 6.82559H16.3903H13.6613V16.8256H15.2009C15.0991 16.832 15.1626 16.851 18.6168 16.851C19.3102 16.851 20.099 16.7238 20.7288 16.4375C21.6003 16.0431 22.2682 15.3053 22.7262 14.491C23.1715 13.6831 23.2733 12.8434 23.2861 11.9719V11.8383H23.2924ZM20.6143 11.8491C20.6143 11.9855 20.6138 12.1217 20.5952 12.2518C20.4489 13.6004 19.2911 14.5037 17.9488 14.5037H16.3903V9.17932H17.9488C19.2911 9.17932 20.4426 10.0889 20.5952 11.4375C20.6079 11.5642 20.6143 11.7035 20.6143 11.8491ZM20.6143 11.8491C20.6143 11.8498 20.6143 11.8504 20.6143 11.851V11.8383C20.6143 11.8419 20.6143 11.8455 20.6143 11.8491ZM24.6474 8.96297H27.3319H27.3383V12.8434C27.3383 12.8943 27.3351 12.9436 27.3319 12.9929C27.3287 13.0422 27.3255 13.0915 27.3255 13.1424C27.3001 13.6004 27.2111 14.6373 26.8104 15.7696C26.0725 17.8689 24.6665 19.3192 22.7454 19.809L22.0838 17.2073C24.622 16.5584 24.6474 12.9388 24.6474 12.9007V8.96297Z" fill="#1E1E1E"/>
</g>
<g id="Group_3">
<path id="Vector" d="M37.701 8.66436C37.7201 8.58167 37.8092 8.51807 37.8919 8.51807H38.0636C38.14 8.51807 38.2227 8.56899 38.2418 8.6326L40.3283 14.3387H40.3791L42.4338 8.6326C42.4529 8.56899 42.542 8.51807 42.6119 8.51807H42.7773C42.86 8.51807 42.9428 8.58167 42.9682 8.66436L44.3294 15.6237C44.3613 15.77 44.2978 15.8718 44.1387 15.8718H43.7188C43.6361 15.8718 43.5472 15.8017 43.5281 15.7254L42.5865 10.3883H42.542L40.6018 15.859C40.5827 15.9227 40.4873 15.9735 40.4237 15.9735H40.2328C40.1692 15.9735 40.0737 15.9227 40.0547 15.859L38.0955 10.3883H38.0509L37.1349 15.7254C37.1222 15.7954 37.0267 15.8718 36.9441 15.8718H36.5243C36.3652 15.8718 36.3016 15.77 36.3334 15.6237L37.6946 8.66436H37.701Z" fill="#1E1E1E"/>
<path id="Vector_2" d="M48.3504 8.51789C50.4623 8.51789 52.1417 10.1846 52.1417 12.2584C52.1417 14.3321 50.456 15.9797 48.3504 15.9797C46.2448 15.9797 44.5654 14.3321 44.5654 12.2584C44.5654 10.1846 46.2384 8.51789 48.3504 8.51789ZM48.3504 15.2545C50.0234 15.2545 51.4102 13.9059 51.4102 12.2584C51.4102 10.6108 50.0298 9.24309 48.3504 9.24309C46.671 9.24309 45.3033 10.6108 45.3033 12.2584C45.3033 13.9059 46.671 15.2545 48.3504 15.2545ZM47.4026 7.53823C47.358 7.45553 47.4026 7.37287 47.4662 7.34107L49.0502 6.46957C49.1138 6.42504 49.2728 6.40591 49.3237 6.50133L49.5146 6.8767C49.5591 6.9594 49.5336 7.06116 49.4509 7.09297L47.7525 7.78633C47.6061 7.84994 47.5552 7.84992 47.5106 7.76723L47.4026 7.53823Z" fill="#1E1E1E"/>
<path id="Vector_3" d="M52.0838 8.8931C52.0202 8.75951 52.1029 8.62598 52.2619 8.62598H52.6817C52.7771 8.62598 52.8408 8.68955 52.8598 8.74044L55.487 14.542H55.5316L58.1589 8.74044C58.1779 8.68955 58.2541 8.62598 58.3368 8.62598H58.7568C58.9158 8.62598 58.9985 8.75951 58.9349 8.8931L55.7288 15.8652C55.697 15.9288 55.6334 15.9796 55.5507 15.9796H55.4426C55.3662 15.9796 55.2962 15.9288 55.2644 15.8652L52.0838 8.8931Z" fill="#1E1E1E"/>
<path id="Vector_4" d="M59.4497 8.81703C59.4497 8.71525 59.5324 8.61987 59.6469 8.61987H63.8009C63.9154 8.61987 64.0045 8.71525 64.0045 8.81703V9.11607C64.0045 9.21786 63.9218 9.31323 63.8009 9.31323H60.264V11.845H63.2856C63.3937 11.845 63.4828 11.9405 63.4828 12.0423V12.3412C63.4828 12.4557 63.3874 12.5384 63.2856 12.5384H60.264V15.1783H63.8009C63.9154 15.1783 64.0045 15.2738 64.0045 15.3756V15.6746C64.0045 15.7763 63.9218 15.8718 63.8009 15.8718H59.6469C59.5324 15.8718 59.4497 15.7763 59.4497 15.6746V8.81703Z" fill="#1E1E1E"/>
<path id="Vector_5" d="M65.0549 8.81703C65.0549 8.71525 65.1504 8.61987 65.2585 8.61987H65.6783C65.7865 8.61987 65.8756 8.71525 65.8756 8.81703V15.6746C65.8756 15.7763 65.7801 15.8718 65.6783 15.8718H65.2585C65.1504 15.8718 65.0549 15.7763 65.0549 15.6746V8.81703Z" fill="#1E1E1E"/>
<path id="Vector_6" d="M66.7091 14.7837C66.76 14.7201 66.8172 14.6502 66.8681 14.5866C66.9763 14.453 67.0907 14.3703 67.237 14.4911C67.3069 14.5547 68.0767 15.2799 69.0182 15.2799C69.8706 15.2799 70.4304 14.7519 70.4304 14.1412C70.4304 13.4224 69.8007 13.0026 68.5856 12.5C67.4279 12.0038 66.7346 11.5395 66.7346 10.3563C66.7346 9.65017 67.3006 8.51147 68.98 8.51147C70.0105 8.51147 70.7803 9.03944 70.7803 9.03944C70.8439 9.07124 70.9712 9.1985 70.8439 9.38934C70.7994 9.45295 70.7613 9.52296 70.7168 9.58658C70.6213 9.73289 70.5195 9.77099 70.3477 9.68193C70.2714 9.64377 69.6099 9.20484 68.9674 9.20484C67.8478 9.20484 67.5106 9.91097 67.5106 10.3435C67.5106 11.0369 68.0513 11.4441 68.9356 11.8003C70.3605 12.3728 71.2765 12.9008 71.2765 14.1031C71.2765 15.1782 70.2332 15.9669 68.9991 15.9669C67.765 15.9669 66.9126 15.2545 66.7726 15.1273C66.6899 15.0573 66.5819 14.9682 66.7091 14.7774V14.7837Z" fill="#1E1E1E"/>
</g>
</g>
</g>
</svg>
