<svg width="120" height="85" viewBox="0 0 120 85" fill="none" xmlns="http://www.w3.org/2000/svg">
<path d="M63.0717 67.9314C64.6641 67.88 66.2566 67.88 67.8491 67.9314C69.082 67.9314 70.2121 68.7019 70.9056 69.7036C71.4707 70.5769 71.4964 71.6557 71.3423 72.6574C71.1882 73.6591 70.4433 74.4554 69.6471 75.0205C68.2087 75.9194 66.4878 75.5085 64.8953 75.6112C64.7412 77.2808 64.8953 78.976 64.8439 80.6455C64.2532 80.6969 63.6624 80.6969 63.0717 80.6455C63.046 76.4075 63.0203 72.1694 63.0717 67.9314ZM64.8696 69.7036C64.7669 71.0649 64.7412 72.4519 64.8439 73.8389C65.9484 73.8389 67.0529 73.916 68.1573 73.7876C69.6471 73.2739 70.0323 71.1163 68.8251 70.1146C67.6693 69.3697 66.1796 69.8064 64.8696 69.7036ZM89.6301 71.3732C89.6558 70.5769 89.5531 69.7807 89.7329 69.0101C90.298 69.0101 90.863 69.0101 91.4538 69.0358C91.5052 69.8064 91.4538 70.5769 91.5052 71.3475C92.0959 71.6557 92.8665 71.4245 93.56 71.5273C93.5857 72.0667 93.5857 72.606 93.56 73.1711C92.8665 73.1968 92.173 73.2225 91.5052 73.2995C91.5052 74.9434 91.4795 76.5873 91.5052 78.2568C91.4795 78.6934 91.685 79.1815 92.1473 79.2842C92.661 79.2842 93.1747 79.2842 93.6884 79.2328C93.7398 79.7979 93.6884 80.363 93.56 80.9024C92.7381 80.9537 91.8905 81.0565 91.0685 80.8253C90.4264 80.44 89.7586 79.8493 89.7329 79.053C89.5531 77.1523 89.7843 75.2516 89.6045 73.3509C89.0908 73.2739 88.5514 73.1968 88.0377 73.1197C88.0377 72.606 88.0377 72.0923 88.0634 71.5786C88.5771 71.4759 89.1421 71.5273 89.6301 71.3732ZM72.8834 73.1454C74.2961 70.4999 78.791 70.4999 80.2294 73.1454C80.6403 74.0187 80.5376 75.0205 80.5633 75.9451C80.5376 77.5119 80.589 79.0787 80.5376 80.6455C80.0753 80.6712 79.6129 80.6712 79.1506 80.6455C78.9965 80.44 78.868 80.2089 78.7139 80.0034C77.6608 80.6712 76.428 81.3647 75.1694 80.9281C73.32 80.6455 71.9074 78.5393 72.7293 76.7671C73.243 75.4057 74.7327 74.7893 76.094 74.6866C77.0444 74.6095 77.9691 74.9434 78.9194 74.9948C78.8167 73.8903 77.9947 72.8115 76.7875 72.8886C75.7344 72.7088 74.8611 73.3509 74.1676 74.0701C73.6539 73.8389 73.243 73.505 72.8834 73.1454ZM74.3474 77.9999C74.4245 78.9246 75.4262 79.4383 76.2738 79.3869C77.6095 79.2842 78.6883 78.2054 78.7653 76.8698C78.0461 76.2277 76.9673 76.1763 76.0684 76.2533C75.1694 76.3304 74.2447 77.0239 74.3474 77.9999ZM96.8734 72.2208C97.6953 71.7327 98.5429 71.0906 99.596 71.1934C101.368 71.0392 102.961 72.606 102.961 74.327C102.986 76.4331 102.961 78.5136 102.961 80.6198C102.37 80.6712 101.779 80.6969 101.188 80.6455C101.111 78.565 101.291 76.4845 101.086 74.404C100.983 73.0684 99.3392 72.6574 98.2604 73.0684C97.31 73.4794 96.7963 74.5068 96.7706 75.5085C96.7193 77.2294 96.7963 78.9246 96.7706 80.6455C96.1542 80.6969 95.5634 80.6969 94.947 80.6455C94.9213 77.6147 94.9213 74.5581 94.947 71.5273C95.5121 71.4759 96.0514 71.4759 96.6165 71.553C96.6936 71.6814 96.822 72.041 96.8734 72.2208ZM106.171 72.0153C107.892 70.6797 110.641 70.9108 112.079 72.5547C112.978 73.6335 113.363 75.0461 113.183 76.4588C110.872 76.5359 108.534 76.4588 106.223 76.4845C106.017 78.1797 107.764 79.5667 109.382 79.2842C110.332 79.2585 110.897 78.4366 111.54 77.8458C112.105 77.7945 112.567 78.2054 113.029 78.4109C112.105 80.7226 109.048 81.6729 106.865 80.5428C103.654 79.0787 103.423 74.0701 106.171 72.0153ZM106.197 74.9434C107.867 75.0205 109.562 75.0205 111.257 74.9434C111.103 73.6848 109.973 72.7859 108.714 72.8886C107.456 72.8115 106.557 73.8646 106.197 74.9434ZM117.935 71.2961C118.577 71.0906 119.271 71.1934 119.939 71.2961C119.99 71.9125 120.016 72.529 119.99 73.1454C119.322 73.1198 118.629 72.94 117.961 73.0941C117.011 73.4793 116.368 74.404 116.394 75.4314C116.343 77.1523 116.42 78.8475 116.394 80.5685C115.803 80.6455 115.187 80.6455 114.596 80.5942C114.57 77.5633 114.57 74.5068 114.596 71.4759C115.058 71.4245 115.547 71.4245 116.009 71.4245C116.163 71.6557 116.317 71.8869 116.497 72.118C116.985 71.8355 117.473 71.553 117.935 71.2961ZM83.8253 72.4006C84.4931 72.041 85.0839 71.4502 85.8801 71.4502C86.2911 71.4245 86.7277 71.4502 87.1387 71.4759C87.1644 72.041 87.1644 72.6061 87.1644 73.1454C86.3681 73.2739 85.4178 73.0684 84.7757 73.6591C84.339 74.0701 83.928 74.6095 83.928 75.2516C83.851 77.101 83.9794 78.9503 83.8767 80.8253C83.3116 80.8767 82.7208 80.8767 82.1301 80.851C82.0787 77.7945 82.0787 74.7379 82.1301 71.7071C82.6438 71.6557 83.1318 71.6814 83.6455 71.7584C83.6712 71.8869 83.7739 72.2208 83.8253 72.4006Z" fill="#606469"/>
<path d="M41.6502 7.98213C46.7358 2.71667 54.1589 -0.0316522 61.4278 0.250885C65.6915 0.533422 69.9553 1.63789 73.6026 3.92387C75.118 4.87423 76.6334 5.87595 77.8149 7.21158C76.6591 8.54721 75.3235 9.72872 74.0906 11.013C72.8063 12.2716 71.5734 13.6072 70.2378 14.8144C68.1573 12.9137 65.5631 11.4753 62.7377 11.09C59.8096 10.7561 56.7017 10.8846 54.0304 12.2202C51.0253 13.6072 48.5338 15.8675 46.8643 18.7185C46.2992 19.6689 45.9139 20.722 45.4516 21.7237C42.4721 19.5405 39.621 17.1774 36.6672 14.9428C37.8744 12.3229 39.5697 9.95989 41.6502 7.98213Z" fill="#EA4335"/>
<path d="M36.6925 14.9171C39.6463 17.1517 42.4973 19.4891 45.4768 21.698C45.0402 23.8299 44.3724 26.0131 44.7833 28.222C44.9117 29.4293 45.2713 30.6108 45.4768 31.7923C43.1652 33.6159 40.8021 35.4139 38.4904 37.2632C37.8997 37.7256 37.2832 38.1365 36.6154 38.4705C34.9973 35.2855 34.0726 31.7666 33.9185 28.1964C33.7901 25.859 33.9442 23.496 34.4065 21.1843C34.9716 19.0524 35.5623 16.8692 36.6925 14.9171Z" fill="#FBBC04"/>
<path d="M60.4772 21.9035C67.7204 21.9035 74.9637 21.9035 82.2069 21.9035C83.1316 21.9035 84.0562 21.8265 84.9809 21.9806C86.5734 29.866 84.8525 38.5732 79.6127 44.7891C79.0476 45.4569 78.4825 46.2017 77.712 46.6384C74.8096 44.5065 72.0612 42.2205 69.1845 40.063C71.7016 38.188 73.628 35.3369 73.9619 32.1776C69.4413 32.1006 64.9207 32.2033 60.4002 32.1263C60.2717 29.455 60.4002 26.758 60.3488 24.0868C60.3745 23.3676 60.246 22.6227 60.4772 21.9035Z" fill="#4284F4"/>
<path d="M38.491 37.2889C40.8027 35.4396 43.1658 33.6416 45.4774 31.818C46.0425 32.8711 46.4021 34.0526 47.0699 35.0543C49.1761 38.4961 52.5152 41.039 56.4193 42.1178C59.1419 42.7085 61.9673 42.7085 64.6643 42.0664C66.2567 41.6554 67.7208 40.8849 69.1592 40.0886C72.0359 42.2462 74.7842 44.5579 77.6867 46.664C76.9932 47.563 76.0428 48.1795 75.1181 48.8216C70.803 51.8781 65.4605 53.0853 60.2464 53.2138C54.9809 53.111 49.7155 51.6213 45.3747 48.5904C41.6246 46.0219 38.5938 42.5544 36.5903 38.4961C37.2838 38.1622 37.9003 37.7513 38.491 37.2889Z" fill="#34A853"/>
<path d="M2.73679 68.9074C4.58613 67.4434 7.25739 67.3406 9.41495 68.1369C10.1855 68.4964 11.0588 68.9331 11.4441 69.7807C11.0845 70.1917 10.6992 70.5769 10.2626 70.9109C9.64611 70.3971 9.00398 69.8578 8.23343 69.6009C6.30703 69.0358 4.02105 69.6266 2.83953 71.2961C1.83781 72.452 1.78644 74.0958 2.01761 75.5599C2.45426 77.8202 4.76592 79.4897 7.0519 79.2842C9.10672 79.3099 11.1359 77.589 11.1359 75.4571C9.64612 75.3544 8.15637 75.4571 6.66663 75.4058C6.46114 74.9434 6.43546 74.404 6.56389 73.916C8.64439 73.7105 10.7763 73.839 12.8568 73.839C13.0879 75.714 12.8054 77.7945 11.367 79.1558C9.05536 81.6216 4.86867 81.6473 2.3772 79.4897C-0.473855 77.0753 -0.807761 72.7859 1.63233 69.9348C1.96624 69.5752 2.32583 69.2156 2.73679 68.9074ZM45.7595 68.0084C46.3503 67.9057 46.9667 67.88 47.5575 67.9314C47.6345 72.1437 47.5832 76.3561 47.5832 80.5685C46.9924 80.774 46.376 80.6712 45.7595 80.6455C45.7338 76.4332 45.7595 72.2208 45.7595 68.0084ZM17.6342 71.3475C18.9442 71.065 20.4082 71.2191 21.5127 72.0153C23.6702 73.428 24.261 76.613 22.8997 78.7705C22.1034 80.2859 20.3312 81.0822 18.6616 81.0822C17.5315 80.9538 16.3756 80.5685 15.5794 79.7466C14.2181 78.4623 13.7814 76.3561 14.3208 74.6095C14.7061 72.9914 16.0931 71.7842 17.6342 71.3475ZM17.8654 73.0941C16.7866 73.5051 16.0674 74.5068 16.016 75.6369C15.9133 76.7414 16.1188 78.0257 17.0691 78.7192C18.5332 80.0034 21.1531 79.1815 21.6154 77.3065C21.8466 76.125 21.8723 74.6352 20.8705 73.7619C20.177 72.9143 18.8928 72.7602 17.8654 73.0941ZM27.9597 71.3732C29.1669 71.1163 30.5025 71.142 31.5813 71.8098C34.1241 73.1198 34.7919 76.7671 33.1738 79.0274C32.3518 80.363 30.7593 81.0822 29.2182 81.1079C27.7542 81.0051 26.2388 80.363 25.4168 79.1044C24.5949 78.0257 24.4665 76.613 24.5949 75.303C24.7747 73.4537 26.2388 71.9126 27.9597 71.3732ZM28.3706 73.0684C25.9562 73.8133 25.648 77.5119 27.6514 78.8733C28.6275 79.5411 30.1429 79.5411 31.0419 78.7192C32.5059 77.5633 32.583 75.1746 31.3758 73.8133C30.6309 72.9657 29.398 72.7602 28.3706 73.0684ZM35.1258 74.5838C35.6138 72.6574 37.4375 71.0136 39.4923 71.2191C40.494 71.142 41.2903 71.8098 42.1122 72.2722C42.1893 72.0153 42.2663 71.7585 42.3434 71.5016C42.8828 71.4759 43.4222 71.4759 43.9359 71.5016C43.9872 74.4297 43.9359 77.3835 43.9615 80.3116C43.9872 81.75 43.3965 83.3168 42.1379 84.1131C41.0334 84.8322 39.6464 84.8322 38.3879 84.7038C36.9752 84.4983 35.7937 83.5223 35.357 82.161C35.7937 81.8271 36.2817 81.4161 36.8467 81.5188C37.3348 82.0325 37.7457 82.6233 38.3879 82.9572C39.5437 83.5223 41.0591 83.0343 41.804 82.0069C42.2149 81.3904 42.1893 80.6199 42.1893 79.9263C41.2389 80.5428 40.1601 81.2106 38.9786 81.0822C37.7971 80.9024 36.5385 80.3887 35.8707 79.3356C34.8947 77.9743 34.7149 76.1763 35.1258 74.5838ZM38.4392 73.1198C36.4358 74.0444 36.1789 77.0239 37.5916 78.565C38.4392 79.4126 39.7235 79.5924 40.7766 79.0274C42.7543 77.8202 42.78 74.5068 40.8536 73.2482C40.1088 72.8629 39.2355 72.8115 38.4392 73.1198ZM50.4085 72.5033C51.2561 71.6044 52.4377 71.142 53.6705 71.2191C55.186 71.142 56.5987 72.118 57.3692 73.3766C57.8829 74.3013 57.9343 75.3801 57.9086 76.4332C55.6226 76.7157 53.2853 76.4332 50.9736 76.5616C50.7681 78.3082 52.6431 79.7209 54.287 79.3099C55.2374 79.2072 55.751 78.3852 56.3161 77.7431C56.8041 77.9486 57.2665 78.1798 57.7288 78.3852C57.4206 79.7209 56.0593 80.6199 54.775 80.9281C53.4137 81.339 51.9496 80.9024 50.8195 80.1318C49.5866 79.2329 49.1243 77.6404 48.9702 76.202C49.0729 74.892 49.4068 73.4537 50.4085 72.5033ZM52.3863 73.1455C51.59 73.428 51.2305 74.2756 50.9993 75.0205C52.6688 75.0462 54.3384 75.0462 56.0079 75.0205C55.8281 74.4811 55.6997 73.8646 55.2374 73.4794C54.4668 72.8372 53.311 72.8116 52.3863 73.1455Z" fill="#606469"/>
</svg>
