<svg width="26" height="26" viewBox="0 0 26 26" fill="none" xmlns="http://www.w3.org/2000/svg">
<g id="Group 1345">
<path id="Vector" d="M22.217 3.72116C19.8098 1.32295 16.6075 0.00136851 13.1993 0C9.79878 0 6.5914 1.32041 4.16837 3.71803C1.74104 6.11975 0.40303 9.31149 0.399902 12.6936V12.6976V12.6999C0.400293 14.747 0.938115 16.8121 1.95902 18.6971L0.434897 25.6246L7.44222 24.0307C9.21697 24.9251 11.1972 25.3967 13.1944 25.3975H13.1995C16.5995 25.3975 19.8068 24.0769 22.2303 21.679C24.6597 19.2754 25.9983 16.0877 25.9999 12.7034C26.0009 9.34297 24.6576 6.15299 22.217 3.72116ZM13.1993 23.3975H13.1948C11.4015 23.3967 9.62459 22.9465 8.05648 22.0951L7.72511 21.9152L3.06555 22.975L4.07766 18.3753L3.88255 18.0388C2.91247 16.3659 2.39987 14.5192 2.39987 12.6978C2.40359 6.80205 7.2477 1.99997 13.1989 1.99997C16.074 2.00114 18.7754 3.11569 20.8055 5.13795C22.8662 7.19148 24.0007 9.87805 23.9997 12.7028C23.9974 18.5999 19.1523 23.3975 13.1993 23.3975Z" fill="white"/>
<path id="Vector_2" d="M9.71663 7.1001H9.15554C8.96024 7.1001 8.64314 7.17321 8.37491 7.4651C8.10649 7.75717 7.3501 8.46313 7.3501 9.89888C7.3501 11.3346 8.39935 12.7219 8.54558 12.9168C8.69201 13.1115 10.571 16.152 13.5469 17.3216C16.0202 18.2937 16.5236 18.1003 17.0602 18.0516C17.5971 18.0032 18.7925 17.3459 19.0365 16.6646C19.2805 15.9832 19.2805 15.3991 19.2074 15.2771C19.1341 15.1555 18.9388 15.0826 18.6461 14.9367C18.3533 14.7907 16.9183 14.0728 16.6499 13.9753C16.3814 13.8781 16.1863 13.8294 15.991 14.1217C15.7957 14.4134 15.2208 15.0882 15.0499 15.283C14.8792 15.4779 14.7083 15.5023 14.4155 15.3563C14.1226 15.2098 13.1893 14.8963 12.0708 13.9023C11.2003 13.1287 10.5962 12.1422 10.4253 11.8502C10.2546 11.5583 10.4071 11.4003 10.554 11.2547C10.6855 11.1241 10.8632 10.9454 11.0097 10.7751C11.1559 10.6046 11.1975 10.483 11.2953 10.2883C11.3929 10.0936 11.344 9.92312 11.2709 9.77728C11.1975 9.63124 10.6357 8.18825 10.3753 7.61114H10.3755C10.1561 7.12512 9.92523 7.1087 9.71663 7.1001Z" fill="white"/>
</g>
</svg>
